/* XPM */
static char * medusa_gui_icon_xpm[] = {
"57 57 257 2",
"  	c None",
". 	c #6FCE00",
"+ 	c #6ACC00",
"@ 	c #62CD00",
"# 	c #61CE00",
"$ 	c #57D100",
"% 	c #63D200",
"& 	c #5ED100",
"* 	c #60CD00",
"= 	c #56D200",
"- 	c #6FC600",
"; 	c #65D200",
"> 	c #5FC700",
", 	c #55CB00",
"' 	c #5EC700",
") 	c #63D100",
"! 	c #6ACD00",
"~ 	c #5BD400",
"{ 	c #5DD100",
"] 	c #5FD400",
"^ 	c #63D000",
"/ 	c #60D100",
"( 	c #5FD200",
"_ 	c #61D300",
": 	c #63D300",
"< 	c #5ED200",
"[ 	c #61D000",
"} 	c #64CA00",
"| 	c #62D200",
"1 	c #65D300",
"2 	c #60D600",
"3 	c #5FCF00",
"4 	c #5CD500",
"5 	c #67D500",
"6 	c #5DD000",
"7 	c #5ECE00",
"8 	c #6BD000",
"9 	c #6ACB00",
"0 	c #62D400",
"a 	c #63D400",
"b 	c #60D400",
"c 	c #62D300",
"d 	c #61D200",
"e 	c #5ACE00",
"f 	c #5CD300",
"g 	c #63CE00",
"h 	c #63CF00",
"i 	c #64D600",
"j 	c #65CF00",
"k 	c #6DC800",
"l 	c #60D000",
"m 	c #5FD100",
"n 	c #59CE00",
"o 	c #62CE00",
"p 	c #71CF00",
"q 	c #64D000",
"r 	c #62D500",
"s 	c #5FD300",
"t 	c #68D000",
"u 	c #5FD500",
"v 	c #60D500",
"w 	c #64D500",
"x 	c #59D300",
"y 	c #66CB00",
"z 	c #74D800",
"A 	c #61D400",
"B 	c #5DD400",
"C 	c #66CD00",
"D 	c #5FC500",
"E 	c #6BD100",
"F 	c #5DD300",
"G 	c #53D100",
"H 	c #64D300",
"I 	c #68CF00",
"J 	c #60D300",
"K 	c #66CE00",
"L 	c #5DCC00",
"M 	c #60CC00",
"N 	c #61D700",
"O 	c #62C700",
"P 	c #6ECE00",
"Q 	c #69DA00",
"R 	c #61D100",
"S 	c #71CC00",
"T 	c #65CA00",
"U 	c #64D100",
"V 	c #5ED300",
"W 	c #5BD200",
"X 	c #5ECD00",
"Y 	c #66CF00",
"Z 	c #61CD00",
"` 	c #73C600",
" .	c #64D200",
"..	c #60D200",
"+.	c #64CF00",
"@.	c #5CD100",
"#.	c #67D200",
"$.	c #65D500",
"%.	c #5DD500",
"&.	c #66C800",
"*.	c #69D100",
"=.	c #72CA00",
"-.	c #5FD600",
";.	c #58D300",
">.	c #65D000",
",.	c #67D000",
"'.	c #56D000",
").	c #61D500",
"!.	c #5FCE00",
"~.	c #66D300",
"{.	c #66D400",
"].	c #6EC900",
"^.	c #78C600",
"/.	c #62D700",
"(.	c #5ED000",
"_.	c #63D600",
":.	c #62D100",
"<.	c #67CC00",
"[.	c #6EC200",
"}.	c #65CC00",
"|.	c #5CD000",
"1.	c #68D100",
"2.	c #6CC700",
"3.	c #5FCC00",
"4.	c #69D000",
"5.	c #67D100",
"6.	c #5CD400",
"7.	c #64D400",
"8.	c #6DD000",
"9.	c #62C300",
"0.	c #56CB00",
"a.	c #59D100",
"b.	c #66D200",
"c.	c #62D000",
"d.	c #5BD100",
"e.	c #65D100",
"f.	c #65D400",
"g.	c #65CD00",
"h.	c #70D100",
"i.	c #5DD200",
"j.	c #61CF00",
"k.	c #66C300",
"l.	c #5FD900",
"m.	c #57D400",
"n.	c #66D000",
"o.	c #62CF00",
"p.	c #6CD400",
"q.	c #59CF00",
"r.	c #65C300",
"s.	c #53D300",
"t.	c #68D200",
"u.	c #5ACF00",
"v.	c #63D500",
"w.	c #5ED400",
"x.	c #58D500",
"y.	c #6EC400",
"z.	c #5FC800",
"A.	c #6CCE00",
"B.	c #6BCF00",
"C.	c #5FCB00",
"D.	c #5DC800",
"E.	c #61CB00",
"F.	c #52D500",
"G.	c #5BCA00",
"H.	c #58D100",
"I.	c #5DC900",
"J.	c #60CA00",
"K.	c #5AD100",
"L.	c #57CD00",
"M.	c #6FCB00",
"N.	c #6ECD00",
"O.	c #58D400",
"P.	c #65CE00",
"Q.	c #61D600",
"R.	c #6BCE00",
"S.	c #5ECB00",
"T.	c #67D300",
"U.	c #64CB00",
"V.	c #56D100",
"W.	c #5DC500",
"X.	c #5ECF00",
"Y.	c #77D000",
"Z.	c #4FD300",
"`.	c #54D000",
" +	c #66D100",
".+	c #57CB00",
"++	c #69CD00",
"@+	c #77D100",
"#+	c #5BD600",
"$+	c #63CB00",
"%+	c #51D300",
"&+	c #5CCF00",
"*+	c #6AD800",
"=+	c #5BD300",
"-+	c #69C400",
";+	c #68D400",
">+	c #6DC500",
",+	c #6CD200",
"'+	c #5FD000",
")+	c #60CF00",
"!+	c #5BD700",
"~+	c #68CE00",
"{+	c #66D500",
"]+	c #60C400",
"^+	c #5BD500",
"/+	c #56CF00",
"(+	c #5BBE00",
"_+	c #5DCE00",
":+	c #58D000",
"<+	c #68CD00",
"[+	c #69CE00",
"}+	c #64C800",
"|+	c #5FC600",
"1+	c #63CD00",
"2+	c #6AD600",
"3+	c #70CA00",
"4+	c #76CA00",
"5+	c #56D700",
"6+	c #56CD00",
"7+	c #5AD200",
"8+	c #5AD600",
"9+	c #6CD000",
"0+	c #6AD000",
"a+	c #5BCF00",
"b+	c #64CD00",
"c+	c #72CB00",
"d+	c #5ED600",
"e+	c #60D700",
"f+	c #50D100",
"g+	c #5DCD00",
"h+	c #64C500",
"i+	c #63C700",
"j+	c #60CE00",
"k+	c #68D700",
"l+	c #6BC900",
"m+	c #6BC200",
"n+	c #5BD000",
"o+	c #5EC500",
"p+	c #53CE00",
"q+	c #63C800",
"r+	c #72CF00",
"s+	c #75C600",
"t+	c #73C900",
"u+	c #5FCA00",
"v+	c #68C900",
"w+	c #68C700",
"x+	c #5ED500",
"y+	c #6CD300",
"z+	c #54D100",
"A+	c #5FCD00",
"B+	c #5ED800",
"C+	c #64CC00",
"D+	c #65C800",
"E+	c #6DD400",
"F+	c #67CF00",
"G+	c #5CD200",
"H+	c #67C800",
"                                                                                                                  ",
"                                          .     + @             # $ %                                             ",
"                                    & * = -         ; > , ' )     ! ~ { ] *                                       ",
"                                ^ / ( _ : < % ~ [ } | _ 1 2 3 4     5 6 7 8                                       ",
"                            9 6 0 a 0 0 a 0 0 : a b c 0 0 : a d e   f g                                           ",
"                        h % i j : a a a a a a a 0 a 0 a a a 0 : =   k   l m n o < 6 p                             ",
"                      q _ _ r s 0 a a a a a a a a a a a a a : _ ~       t _ d u v w x y                           ",
"                  z ^ A a a c a : a a a a a a a a a a a a a a % B C     a D l A : c r E   F                       ",
"                g G | 0 a a a a a a a a a a a a a a a a a a c H u }       I 3 F : : J K   b L                     ",
"              M d a 0 : a a a a a a a a a a a a a a a a a a a | N O         P Q s R s S T / {     U               ",
"              x : a a a a a a a a a a a a a a a a a a a a a 0 H d ~ V W X     Y : c h   Z u     0 $ `             ",
"            _ V : a a a a a a a a a a a a a a a a a a a a a a c  . .| 0 1 ..A 2 ) %     & .   +.B q               ",
"          X @.#.: a a a a a a a a a a a a a a a a a a a a a a c 0 0 a c 0 0 : s $.>         Z %.: %               ",
"        Y d ; v c a a a a a a a a a a a a a a a a a a a a a a a a a a a a a a { &.    *.  =.-.J : c               ",
"        ;.>.c : a a a a a a a a a a a a a a a a a a a a a a a a a a a a a a : r ,.        '.6 : ).%               ",
"      !.~...a 0 c a a a a a a a a a a a a a a a a a a a a a a a a a a a a a 0 ) q / [ h / a {.~ m o ].S ^.        ",
"      : [ /.c a a a a a a a a a a a a a a a a a a a a a a a a a a a a a a a : 0 ( : (._.A :.<.[.}.| :.            ",
"    + s 0 c a a a a a a a a a a a a a a a a a a a a a a a a a a a a a a a a a c : : : : q                         ",
"    J : a a a a a a a a a a a a a a a a a a a a a a a a a a a a a a a a a a a a a a a a |.1.2.                    ",
"    B : a a a a a a a a a a a a a a a a a a a a a a a a a a a a a a a a a a a a a a a 0 3.4.        5.W 6 6.7.8.  ",
"  9...c a a a a a a a a a a a a a a a a a a a a a a a a a a a a a a a a a a a a a a a 0 % 0.  ,.5.a._ a b.c.c [   ",
"  d.e.0 a a a a a a a a a a a a a a a a a a a a a a a a a a a a a a a a a c c a a a a 0 f.!.m s :.; 0 a B g.  h.  ",
"  $ ] : a a a a a a a a a a a a a a a a a a a a a a a a a a a a a a a a a a a a a a a a c 0 a J o i.c | x         ",
"C ( j.a a a a a a a a a a a a a a a a a a a a a a a a a a a a a a a a : a : : a : a a a a 0 : ..    k.l.n         ",
"m.).a c a a a a a a a a a a a a a a a a a a a a a a a a a a a a a a a a c :.( R | a : 0 : : _ n.      o.a.        ",
"& a c a a a a a a a a a a a a a a a a a a a a a a a a a a a a a a a a a V l ] p.R q.0 c a R d w r.      s.t.      ",
"{ a a a a a a a a a a a a a a a a a a a a a a a a a a a a a a a a a a : b c.u.  2 ^ 0 c A e.c J v.                ",
"{ a a a a a a a a a a a a a a a a a a a a a a a a a a a a a a a a : d r ).% w.y   |.m i 4.x.  ( y.    z.# A.      ",
"< a a a a a a a a a a a a a a a a a a a a a a a a a a a a a a a a c _ R ) a : %.B.  b.C.~ e.D.        E.c ] F.    ",
"{ a c a a a a a a a a a a a a a a a a a a a a a a a a a : 0 0 c 0 0 r f.{.0 a d s G.  H.6 U Z   I.g   J...6 R     ",
"f ( c c a a a a a a a a a a a a a a a a a a a a a a a a c ( 3 2 7 ) / !.K.< & .._ L.M.  0 c F N.  O.  P.Q.c W     ",
"R.B ^ 0 a a a a a a a a a a a a a a a a a a a a a : 0 : 0 / H     s B S.T.b U.          ^ a a m       x _ a V.    ",
"W.6.q 0 a a a a a a a a a a a a a a a a a a a a a 0  .b J (         d f R X.      Y.    ) H _ 6       Z.V | `.    ",
"  / c a a a a a a a a a a a a a a a a a a a a a a 0 d d  +          q .+                  W q : ++        @+b.    ",
"  u.c a a a a a a a a a a a a a a a a a a a a a a : #+>.    $+%+&+| V *+h         % (.h   M e.a =+-+              ",
"  3.c.0 a a a a a a a a a a a a a a a a a a a a a a @.;+>+s | 0 d 0 H i.( |  .% _ 6 ,+      j.a c ..'+) )+!+      ",
"  ~+| 0 a a a a a a a a a a a a a a a a a a a a a 0 q (.x : c a a 0 )+# U : {+1 | e.        ]+^+: a v./+V (+      ",
"    s : a a a a a a a a a a a a a a a a a a a a a c _ R _+0 a a a a F h   7.:+r l <+          b.0 : [+  h.        ",
"    J a 0 a a a a a a a a a a a a a a a a a a a a a c 0 a c a a a c  +f }+    |+( 1+          2+%.U e.            ",
"    1+s 0 a a a a a a a a a a a a a a a a a a a a a a a a a a a a : o.%.@.3+      .       q.  4+J d   ,+          ",
"      )+d c 0 a a a a a a a a a a a a a a a a a a a a a a a a a a a '+& 1 5+            L.;     3 :.  R           ",
"      P.j.7.0 a a a a a a a a a a a a a a a a a a a a a a a a a a 0 | j.6+              j.      * n   #+          ",
"        7+l : A 0 a a a a a a a a a a a a a a a a a a a a a a a a : R s               h     3 8+    9+&+          ",
"        [+e :.(.: a a a a a a a a a a a a a a a a a a a a a a a a 0 c.,.            0+      a+ .b+n.:.            ",
"          | %.^ c 0 0 a a a a a a a a a a a a a a a a a 0 : 0 0 : : d.          c+:.      6 ..:.t.%               ",
"            d+( : c : c a a a a a a a a a a a a a a a a : e+c.+.] R f+        g+!     h+(.o.a.#.| i+              ",
"              B :.H % 0 a a a a a a a a a a a a a a a a 0 j+d.k+@.H 8     j.R l+    m+| a 0 : ).n+                ",
"                a H H 0 0 a 0 a a a a a a a a a a a a a 0 ( o+  4.  p+_ c.1.      q.m m s c b q+                  ",
"                r+:.c c.: ] : a a a a a a a a a a a a a : V s+a   m T.t+      u+& w.: ; H c v+                    ",
"                    J F 0 _ c a a a a a a a a a a a a a c %               j+a+( 0 : H b R {                       ",
"                      w+W f.c a c a a a a a a a a a a a 0 @           t.H.x+g | c a c R t.                        ",
"                        y+z+0+7.0 a a a a a a a a a a a c o.      e.J c c : a [ % ] o.                            ",
"                            H.< c a 0 0 0 0 0 0 : a a 0 : f '+    6 c 0 c : c v ^+q+                              ",
"                                )+7+d c.>._ ;  +0 a a a 0 A+_.    s 1 [ a B+_+<+                                  ",
"                                    (.w.s U ^+F : : a c 0 ^ f     C+@.V e D+                                      ",
"                                          E+F+z+'.G+< ( ( J     )+H+                                              ",
"                                                                                                                  "};
